<svg xmlns="http://www.w3.org/2000/svg" viewBox="0 0 594.24 478.11">
  <title>pickup marker</title>
  <g id="Layer_2" data-name="Layer 2">
    <g id="Layer_3" data-name="Layer 3">
      <g>
        <path fill="black" d="M282.1,349.32c-6.92-9.58-13.61-18.85-20.31-28.11q-42-58.05-84-116.1c-18.46-25.56-26.75-54.16-24.26-85.58,4.58-57.66,44.85-103.9,100.93-116.44,71.66-16,143.08,32.06,154.83,104.51,6,37-2.68,70.35-25,100.51-21.76,29.42-42.95,59.26-64.38,88.91q-17.81,24.63-35.59,49.27C283.67,347.21,283,348.11,282.1,349.32Zm.22-158.58c34.64-.53,61.9-28.28,61.4-62.5S315.1,67,280.5,67.6c-33.23.54-60.47,28.86-60,62.33C221.06,163.71,249,191.25,282.32,190.74Z" transform="translate(0 0)"/>
        <path fill="black" d="M380,258.8c-16.81,23.24-33.48,46.57-50.28,69.81l-44.78,62c-.84,1.15-1.69,2.29-2.82,3.81-8.7-12.05-17.11-23.72-25.54-35.37l-48.09-66.41L0,350.72,231.11,478.11,594.24,376.92Z" transform="translate(0 0)"/>
      </g>
    </g>
  </g>
</svg>
