<?xml version="1.0" standalone="no"?>
<!DOCTYPE svg PUBLIC "-//W3C//DTD SVG 20010904//EN"
 "http://www.w3.org/TR/2001/REC-SVG-20010904/DTD/svg10.dtd">
<svg version="1.0" xmlns="http://www.w3.org/2000/svg"
 width="2048.000000pt" height="2048.000000pt" viewBox="0 0 2048.000000 2048.000000"
 preserveAspectRatio="xMidYMid meet">
<metadata>
Created by potrace 1.11, written by Peter Selinger 2001-2013
</metadata>
<g transform="translate(0.000000,2048.000000) scale(0.100000,-0.100000)"
fill="#000000" stroke="none">
<path d="M10173 19932 c-73 -55 -354 -260 -386 -282 -13 -8 -131 -93 -262
-189 -359 -261 -387 -281 -427 -312 -20 -16 -41 -29 -47 -29 -5 0 -11 -4 -13
-8 -1 -5 -120 -93 -263 -197 -143 -103 -296 -214 -340 -247 -44 -32 -190 -138
-325 -235 -135 -97 -247 -180 -250 -183 -3 -3 -18 -14 -33 -23 -16 -10 -36
-25 -45 -32 -9 -8 -170 -125 -357 -260 -187 -135 -348 -252 -357 -260 -9 -7
-52 -38 -95 -69 -43 -30 -185 -133 -315 -228 -131 -95 -263 -191 -293 -213
-31 -22 -66 -48 -78 -57 -12 -9 -183 -134 -381 -277 -197 -143 -368 -267 -380
-276 -11 -8 -52 -38 -91 -66 -38 -28 -83 -60 -99 -72 -15 -12 -47 -35 -71 -52
-48 -33 -834 -605 -850 -618 -5 -4 -113 -83 -240 -174 -126 -91 -273 -197
-325 -235 -52 -38 -106 -77 -118 -86 -23 -16 -68 -49 -122 -90 -14 -10 -149
-108 -300 -217 -151 -109 -287 -208 -301 -219 -14 -12 -36 -28 -48 -36 -27
-18 -232 -166 -246 -177 -5 -5 -109 -80 -230 -167 -121 -88 -239 -173 -262
-190 -23 -17 -52 -39 -65 -48 -12 -9 -120 -87 -238 -173 -118 -86 -244 -177
-280 -203 -35 -26 -86 -63 -112 -82 -88 -64 -259 -188 -648 -470 -212 -154
-389 -283 -395 -287 -5 -5 -115 -84 -243 -177 -128 -93 -235 -172 -237 -177
-5 -6 35 -143 55 -194 5 -11 59 -175 120 -365 173 -536 210 -649 240 -740 16
-47 76 -233 135 -415 59 -181 117 -361 130 -400 27 -84 86 -264 235 -725 61
-190 114 -352 117 -360 4 -8 7 -17 8 -20 0 -3 6 -21 12 -40 7 -19 64 -197 128
-395 64 -198 125 -385 135 -415 11 -30 67 -203 125 -385 59 -181 110 -339 114
-350 9 -21 83 -252 87 -270 1 -5 37 -113 79 -240 42 -126 78 -237 80 -246 2
-8 17 -56 33 -105 17 -49 76 -231 132 -404 56 -173 112 -346 125 -385 45 -137
164 -505 260 -800 53 -165 110 -338 125 -385 16 -47 74 -227 130 -400 56 -173
114 -353 130 -400 16 -47 74 -227 130 -400 56 -173 110 -340 120 -370 10 -30
69 -210 130 -400 62 -190 124 -383 140 -430 15 -47 74 -227 130 -400 56 -173
135 -416 175 -540 75 -228 306 -942 329 -1015 l13 -40 6332 0 6332 0 23 70
c13 39 44 133 69 210 25 77 105 322 177 545 72 223 154 475 182 560 28 85 61
187 73 225 13 39 69 212 125 385 56 173 104 322 107 330 3 8 7 20 9 25 1 6 16
51 32 100 16 50 71 218 122 375 51 157 105 323 120 370 16 47 74 227 130 400
123 380 222 685 260 800 15 47 78 240 140 430 61 190 147 453 190 585 43 132
124 382 180 555 56 173 116 360 134 415 48 145 119 362 251 770 64 198 135
414 157 480 22 66 41 125 42 130 1 6 17 55 35 110 18 55 93 287 167 515 75
228 164 503 199 610 35 107 111 344 170 525 59 182 126 389 150 460 23 72 77
238 119 370 43 132 80 247 83 255 3 8 7 20 9 25 1 6 22 71 47 145 24 74 61
187 81 250 36 111 121 372 260 799 64 196 66 206 49 221 -10 10 -151 113 -313
230 -326 236 -408 295 -430 313 -8 7 -62 46 -120 87 -58 41 -112 80 -120 87
-15 12 -662 481 -800 581 -41 29 -86 62 -100 72 -115 85 -267 196 -548 399
-538 389 -718 520 -818 595 -23 17 -52 38 -64 46 -11 8 -155 112 -318 231
-163 118 -628 456 -1032 749 -404 293 -775 563 -825 600 -142 104 -1281 932
-1330 965 -24 17 -56 41 -72 53 -15 11 -68 50 -118 86 -49 36 -94 69 -100 73
-5 5 -32 24 -60 43 -27 19 -52 37 -55 41 -3 3 -27 21 -55 40 -27 18 -52 36
-55 39 -3 3 -52 39 -110 80 -58 41 -109 78 -115 82 -41 32 -136 102 -200 148
-43 30 -114 82 -160 115 -80 58 -222 161 -328 237 -29 21 -65 48 -81 60 -16
13 -45 34 -64 48 -59 42 -1226 888 -1237 897 -22 18 -595 433 -598 432 -1 0
-30 -21 -64 -47z m-3708 -6796 c77 -10 239 -37 245 -41 3 -2 21 -6 40 -9 49
-8 151 -38 245 -74 450 -167 819 -504 1027 -936 l23 -48 5 523 5 524 882 0
c582 0 884 -3 886 -10 6 -20 0 -5983 -7 -6075 -3 -52 -9 -113 -12 -135 -2 -22
-7 -58 -10 -80 -50 -395 -174 -783 -356 -1115 -43 -79 -143 -225 -220 -322
-239 -300 -608 -578 -959 -723 -203 -84 -483 -163 -664 -189 -22 -3 -49 -7
-60 -9 -11 -3 -51 -8 -90 -12 -38 -5 -79 -9 -90 -11 -193 -22 -735 -22 -877 1
-13 2 -50 6 -83 10 -63 7 -169 21 -220 30 -94 17 -200 39 -270 57 -44 11 -87
21 -95 23 -217 51 -601 220 -790 349 -60 40 -184 129 -190 136 -3 3 -43 37
-90 77 -119 100 -211 197 -359 378 -44 54 -173 261 -218 350 -138 271 -262
667 -267 855 l-1 25 865 1 c476 0 872 -3 881 -8 9 -4 22 -29 28 -55 7 -26 27
-79 45 -119 105 -225 273 -376 541 -485 80 -32 220 -64 350 -78 84 -9 379 -7
430 3 37 7 90 17 130 23 59 9 210 65 296 109 194 100 346 248 434 424 34 68
83 197 91 239 3 14 7 28 9 31 2 4 7 20 9 36 3 16 8 39 10 51 3 11 7 41 11 65
3 23 9 57 12 73 3 17 7 316 9 665 l4 635 -58 -110 c-146 -277 -332 -490 -577
-660 -220 -153 -486 -265 -730 -309 -16 -3 -40 -8 -51 -10 -46 -9 -178 -27
-238 -31 -61 -5 -364 -5 -416 0 -222 21 -371 50 -545 105 -212 67 -390 152
-577 276 -69 46 -132 89 -140 96 -7 7 -38 33 -68 58 -231 188 -461 483 -624
803 -99 195 -152 331 -230 597 -16 54 -63 269 -71 319 -20 139 -35 260 -40
326 -3 44 -8 96 -10 115 -6 50 -6 480 0 570 4 72 9 127 21 235 6 55 31 226 39
265 3 14 8 41 11 60 11 63 74 301 100 379 60 180 176 441 247 556 43 71 178
275 189 286 7 8 29 34 48 59 117 152 331 350 508 469 258 174 580 306 870 357
12 2 34 6 50 9 29 5 88 12 197 24 82 8 437 6 510 -3z m7655 1 c25 -3 70 -9
101 -12 31 -3 65 -7 75 -9 11 -2 42 -7 69 -11 67 -9 240 -43 290 -56 22 -6 48
-13 58 -15 49 -9 236 -72 352 -119 247 -99 497 -241 675 -382 189 -150 343
-305 475 -478 185 -243 328 -510 424 -792 52 -153 66 -202 100 -366 25 -118
38 -201 46 -282 3 -33 8 -78 12 -100 12 -81 18 -468 9 -610 -4 -62 -17 -194
-21 -216 -2 -9 -7 -40 -10 -70 -12 -87 -16 -108 -41 -229 -29 -135 -113 -417
-133 -445 -4 -5 -16 -32 -26 -60 -23 -64 -138 -293 -183 -365 -110 -174 -161
-244 -273 -375 -127 -148 -301 -307 -474 -433 -127 -92 -362 -220 -545 -297
-203 -85 -496 -168 -705 -199 -57 -8 -120 -18 -145 -21 -26 -4 -115 -12 -215
-20 -74 -6 -398 -6 -480 -1 -90 7 -203 17 -228 21 -12 2 -71 11 -132 20 -60 9
-126 20 -145 25 -19 5 -46 11 -60 14 -165 29 -488 142 -690 241 -180 89 -379
216 -530 339 -86 70 -263 244 -335 330 -181 212 -378 546 -462 780 -14 39 -29
76 -33 81 -4 6 -10 21 -13 35 -3 14 -15 57 -27 95 -48 159 -90 351 -106 489
-3 23 -7 52 -9 66 -27 144 -26 812 0 894 2 6 6 39 9 72 3 34 8 68 10 75 3 8 7
30 10 49 17 112 66 309 109 435 200 584 543 1046 1034 1388 29 21 55 37 57 37
3 0 24 13 48 29 54 36 101 63 208 116 79 40 119 58 225 105 127 55 443 148
600 175 17 3 41 7 55 10 33 6 75 13 125 19 22 3 58 8 80 11 22 2 76 7 120 10
43 3 81 7 82 9 6 5 516 -1 563 -7z"/>
<path d="M6717 11584 c-1 -1 -39 -4 -84 -8 -550 -42 -947 -381 -1093 -933 -11
-43 -23 -97 -26 -119 -2 -23 -7 -53 -10 -65 -22 -111 -22 -544 1 -612 2 -6 7
-30 10 -52 27 -183 106 -388 212 -549 97 -146 295 -316 453 -389 105 -49 235
-90 320 -101 19 -2 58 -8 85 -12 66 -9 239 -10 344 0 67 6 228 41 276 60 6 2
21 7 35 12 14 4 64 27 111 51 270 135 477 371 602 688 31 77 66 227 84 355 10
71 10 407 0 485 -18 145 -59 328 -78 350 -5 5 -9 15 -9 23 0 25 -62 155 -112
237 -209 337 -560 547 -953 571 -55 3 -115 7 -133 8 -18 1 -33 2 -35 0z"/>
<path d="M13727 11604 c-1 -1 -31 -4 -67 -8 -270 -27 -496 -134 -692 -329 -52
-50 -100 -101 -109 -112 -74 -99 -140 -222 -184 -345 -30 -85 -70 -256 -80
-345 -3 -33 -8 -76 -11 -95 -7 -48 -7 -353 0 -420 23 -218 56 -359 119 -511
105 -253 292 -456 540 -587 42 -23 77 -39 77 -35 0 3 6 1 13 -4 14 -12 85 -36
172 -58 105 -27 299 -36 437 -22 67 7 234 44 253 55 6 4 16 7 23 8 19 3 101
43 167 82 176 104 321 251 423 430 36 63 108 238 117 282 2 8 8 34 15 58 6 24
13 55 15 70 5 33 14 80 20 107 23 106 24 525 1 655 -3 14 -7 43 -11 65 -28
192 -108 401 -214 559 -57 87 -195 227 -282 289 -106 75 -270 152 -365 171
-10 3 -41 9 -67 15 -57 13 -301 33 -310 25z"/>
</g>
</svg>
