<svg id="Layer_2" data-name="Layer 2" xmlns="http://www.w3.org/2000/svg" viewBox="0 0 2061.69 2061.69">
  <defs>
    <style>
      .cls-1 {
        fill: #fff;
      }

      .cls-2 {
        fill: #243042;
      }

      .cls-3 {
        fill: #efefef;
      }
    </style>
  </defs>
  <path class="cls-1" d="M1929,257.6h0a51.55,51.55,0,0,1-51.39-51.4h0A51.55,51.55,0,0,1,1929,154.81h0a51.55,51.55,0,0,1,51.4,51.39h0A51.55,51.55,0,0,1,1929,257.6Z"/>
  <path class="cls-1" d="M1780,257.6h0a51.55,51.55,0,0,1-51.39-51.4h0A51.55,51.55,0,0,1,1780,154.81h0a51.54,51.54,0,0,1,51.39,51.39h0A51.54,51.54,0,0,1,1780,257.6Z"/>
  <g>
    <path class="cls-1" d="M84,252.46h0a13,13,0,0,0,18.5,0l74-74a13,13,0,0,0,0-18.5h0A13,13,0,0,0,158,160L84,234A13,13,0,0,0,84,252.46Z"/>
    <path class="cls-1" d="M158,252.46l-74-74A13,13,0,0,1,84,160h0a13,13,0,0,1,18.5,0l74,74a13,13,0,0,1,0,18.5h0A13,13,0,0,1,158,252.46Z"/>
  </g>
  <g>
    <path class="cls-2" d="M426.33,982.87v-5.7q5.61-5.43,10.16-10t7.73-8.5a39.73,39.73,0,0,0,4.89-7.31,14.5,14.5,0,0,0,1.7-6.46,9.74,9.74,0,0,0-2.29-6.84,8.54,8.54,0,0,0-6.63-2.51,9.9,9.9,0,0,0-5.74,1.79,26.61,26.61,0,0,0-4.8,4.25l-5.44-5.44A31.12,31.12,0,0,1,433.6,930a21.94,21.94,0,0,1,16.62-1,14.75,14.75,0,0,1,8.79,8.58,18.09,18.09,0,0,1,1.24,6.8,18.49,18.49,0,0,1-1.58,7.27,40.26,40.26,0,0,1-4.25,7.48,88.55,88.55,0,0,1-6.24,7.78q-3.57,4-7.57,8.24l4.59-.38c1.64-.14,3.12-.21,4.42-.21h13.26v8.33Z"/>
    <path class="cls-2" d="M488.46,983.89A15.42,15.42,0,0,1,475,976.62q-4.94-7.27-4.93-21T475,934.8a16.34,16.34,0,0,1,26.86,0q4.92,7.06,4.93,20.74t-4.93,21A15.45,15.45,0,0,1,488.46,983.89Zm0-7.65a6.58,6.58,0,0,0,3.62-1.07,8.29,8.29,0,0,0,2.84-3.52,24.22,24.22,0,0,0,1.87-6.38,57.08,57.08,0,0,0,.68-9.69,55.84,55.84,0,0,0-.68-9.56,22.82,22.82,0,0,0-1.87-6.25,7.87,7.87,0,0,0-2.84-3.36,7.22,7.22,0,0,0-7.23,0,8,8,0,0,0-2.85,3.36,23.53,23.53,0,0,0-1.87,6.25,57,57,0,0,0-.67,9.56,58.27,58.27,0,0,0,.67,9.69,25,25,0,0,0,1.87,6.38,8.38,8.38,0,0,0,2.85,3.52A6.57,6.57,0,0,0,488.46,976.24Z"/>
    <path class="cls-2" d="M532.07,983.89a15.42,15.42,0,0,1-13.43-7.27q-4.93-7.27-4.93-21t4.93-20.78a16.34,16.34,0,0,1,26.86,0q4.92,7.06,4.93,20.74t-4.93,21A15.45,15.45,0,0,1,532.07,983.89Zm0-7.65a6.55,6.55,0,0,0,3.61-1.07,8.31,8.31,0,0,0,2.85-3.52,25,25,0,0,0,1.87-6.38,58.14,58.14,0,0,0,.68-9.69,56.88,56.88,0,0,0-.68-9.56,23.53,23.53,0,0,0-1.87-6.25,7.88,7.88,0,0,0-2.85-3.36,7.2,7.2,0,0,0-7.22,0,7.82,7.82,0,0,0-2.85,3.36,22.82,22.82,0,0,0-1.87,6.25,55.84,55.84,0,0,0-.68,9.56,57.08,57.08,0,0,0,.68,9.69,24.22,24.22,0,0,0,1.87,6.38,8.24,8.24,0,0,0,2.85,3.52A6.52,6.52,0,0,0,532.07,976.24Z"/>
    <path class="cls-2" d="M578,982.87V927.28H589.1l9.86,27.2q.93,2.63,1.79,5.39c.56,1.85,1.16,3.67,1.78,5.49h.34c.63-1.82,1.21-3.64,1.74-5.49s1.12-3.64,1.75-5.39l9.6-27.2h11.22v55.59h-9.09V957.45c0-1.3,0-2.72.12-4.25s.19-3.07.3-4.63.26-3.09.43-4.59.31-2.9.42-4.21H619l-4.5,12.92-9.1,25h-5.86l-9.18-25L586,939.77h-.34c.11,1.31.24,2.71.38,4.21s.28,3,.42,4.59.26,3.1.34,4.63.13,2.95.13,4.25v25.42Z"/>
    <path class="cls-2" d="M658.29,983.89a21.65,21.65,0,0,1-8.07-1.49,19.1,19.1,0,0,1-6.55-4.29,19.57,19.57,0,0,1-4.38-6.85,25.42,25.42,0,0,1-1.57-9.22,24.7,24.7,0,0,1,1.62-9.18,20.84,20.84,0,0,1,4.29-6.88,19.11,19.11,0,0,1,6.16-4.34,17.64,17.64,0,0,1,7.14-1.53,18,18,0,0,1,7.48,1.45,14.44,14.44,0,0,1,5.4,4.08,18,18,0,0,1,3.27,6.29,27.36,27.36,0,0,1,1.11,8c0,1-.05,1.87-.13,2.72a17.66,17.66,0,0,1-.3,2H647.24q.69,5.61,4,8.62a11.86,11.86,0,0,0,8.38,3,15.28,15.28,0,0,0,5-.81,21.74,21.74,0,0,0,4.64-2.25l3.31,6.12a29.58,29.58,0,0,1-6.63,3.23A23,23,0,0,1,658.29,983.89Zm-11.13-25.84h18.53a12.37,12.37,0,0,0-2.09-7.61q-2.07-2.76-6.41-2.76a9.28,9.28,0,0,0-6.55,2.63Q647.84,953,647.16,958.05Z"/>
    <path class="cls-2" d="M697.39,983.89a15.18,15.18,0,0,1-6.16-1.11,10.42,10.42,0,0,1-4.08-3.1,12.8,12.8,0,0,1-2.3-4.76,24.45,24.45,0,0,1-.72-6.16V948.87h-6v-7.31l6.46-.43,1.19-11.39H694v11.39h10.63v7.74H694v19.89q0,7.31,5.87,7.31a10.44,10.44,0,0,0,2.25-.26,10.15,10.15,0,0,0,2.08-.68l1.7,7.23a33.13,33.13,0,0,1-3.87,1.06A22,22,0,0,1,697.39,983.89Z"/>
    <path class="cls-2" d="M729.86,983.89a21.65,21.65,0,0,1-8.07-1.49,19.1,19.1,0,0,1-6.55-4.29,19.57,19.57,0,0,1-4.38-6.85,25.21,25.21,0,0,1-1.57-9.22,24.7,24.7,0,0,1,1.62-9.18A20.84,20.84,0,0,1,715.2,946a19,19,0,0,1,6.16-4.34,17.57,17.57,0,0,1,7.14-1.53,18.05,18.05,0,0,1,7.48,1.45,14.6,14.6,0,0,1,5.4,4.08,18,18,0,0,1,3.27,6.29,27.36,27.36,0,0,1,1.11,8c0,1,0,1.87-.13,2.72a20.18,20.18,0,0,1-.3,2H718.81q.68,5.61,4,8.62a11.86,11.86,0,0,0,8.38,3,15.32,15.32,0,0,0,5.05-.81,21.74,21.74,0,0,0,4.64-2.25l3.31,6.12a29.58,29.58,0,0,1-6.63,3.23A23.09,23.09,0,0,1,729.86,983.89Zm-11.13-25.84h18.53a12.37,12.37,0,0,0-2.09-7.61q-2.07-2.76-6.41-2.76a9.28,9.28,0,0,0-6.55,2.63Q719.41,953,718.73,958.05Z"/>
    <path class="cls-2" d="M755.11,982.87V941.13h8.07l.68,7.4h.34a17.43,17.43,0,0,1,5.36-6.25,11.21,11.21,0,0,1,6.46-2.17,11.33,11.33,0,0,1,4.76.85l-1.7,8.5q-1.11-.33-2-.51a13.52,13.52,0,0,0-2.3-.17,9.13,9.13,0,0,0-5.18,1.91c-1.82,1.28-3.38,3.5-4.68,6.68v25.5Z"/>
    <path class="cls-2" d="M797.94,983.89a23.24,23.24,0,0,1-8.54-1.66,28,28,0,0,1-7.27-4.12l4.59-6.29a26.64,26.64,0,0,0,5.57,3.44,14.57,14.57,0,0,0,6,1.23,7.55,7.55,0,0,0,5-1.4,4.57,4.57,0,0,0,1.62-3.61,3.59,3.59,0,0,0-.77-2.26,7.37,7.37,0,0,0-2-1.74,19,19,0,0,0-2.89-1.4c-1.08-.43-2.15-.86-3.23-1.32-1.36-.51-2.75-1.1-4.16-1.78a16.62,16.62,0,0,1-3.79-2.47,12.44,12.44,0,0,1-2.72-3.36,9.18,9.18,0,0,1-1.06-4.54,11.29,11.29,0,0,1,4.08-9q4.08-3.5,11.13-3.49a19.25,19.25,0,0,1,7.82,1.53,28.7,28.7,0,0,1,6,3.49l-4.5,6a23.94,23.94,0,0,0-4.47-2.6,11.73,11.73,0,0,0-4.72-1,6.9,6.9,0,0,0-4.63,1.31,4.21,4.21,0,0,0-1.49,3.28,3.27,3.27,0,0,0,.73,2.16,6.75,6.75,0,0,0,1.91,1.58,18.83,18.83,0,0,0,2.76,1.27c1.05.4,2.14.8,3.27,1.19,1.42.51,2.84,1.09,4.25,1.74a17.44,17.44,0,0,1,3.87,2.43,11.13,11.13,0,0,1,2.81,3.52,10.83,10.83,0,0,1,1.06,5,12,12,0,0,1-1.06,5A11.57,11.57,0,0,1,810,980.1a14.93,14.93,0,0,1-5.09,2.77A22,22,0,0,1,797.94,983.89Z"/>
    <path class="cls-2" d="M833.56,982.87l18.1-55.59h11.56l18.11,55.59H871l-4.34-15h-18.7l-4.33,15Zm18.61-29.58-1.95,6.8h14.19l-1.95-6.8q-1.37-4.42-2.59-9.1c-.83-3.11-1.63-6.2-2.43-9.26h-.34c-.79,3.11-1.58,6.22-2.38,9.3S853.08,950.34,852.17,953.29Z"/>
    <path class="cls-2" d="M893.74,982.87l-11-41.74h9.86l5,21.68q.69,3,1.15,6c.31,2,.67,4,1.06,6h.34q.6-3.06,1.24-6t1.4-6l5.44-21.68h8.92l5.53,21.68q.76,3,1.44,6t1.36,6h.34q.6-3.06,1.11-6t1.1-6l5-21.68h9.18l-10.63,41.74H919.92l-4.85-19.47q-.68-3-1.27-5.91c-.4-2-.82-4-1.28-6.24h-.34c-.39,2.21-.79,4.3-1.19,6.29s-.82,4-1.27,6L905,982.87Z"/>
    <path class="cls-2" d="M959.7,983.89a12.15,12.15,0,0,1-8.93-3.36,12,12,0,0,1-3.4-8.88,12.18,12.18,0,0,1,1.41-5.91,11.93,11.93,0,0,1,4.42-4.46,29.19,29.19,0,0,1,7.65-3.15,69.34,69.34,0,0,1,11.09-2,15.76,15.76,0,0,0-.47-3.11,7.07,7.07,0,0,0-1.27-2.63,6,6,0,0,0-2.34-1.79,9,9,0,0,0-3.57-.63,15.65,15.65,0,0,0-6,1.19,39.05,39.05,0,0,0-5.74,2.89L949,945.55a41.5,41.5,0,0,1,7.82-3.82,26.47,26.47,0,0,1,9.35-1.62q7.82,0,11.69,4.63t3.86,13.39v24.74h-8.07l-.68-4.59h-.34a30.77,30.77,0,0,1-6,4A15.1,15.1,0,0,1,959.7,983.89Zm3.14-7.65a9.24,9.24,0,0,0,4.64-1.19,25.78,25.78,0,0,0,4.46-3.4V962.3a44,44,0,0,0-7.14,1.36,20.25,20.25,0,0,0-4.68,1.91,6.8,6.8,0,0,0-2.55,2.42,5.81,5.81,0,0,0-.76,2.89,4.78,4.78,0,0,0,1.7,4.08A7,7,0,0,0,962.84,976.24Z"/>
    <path class="cls-2" d="M996.25,1000a18.43,18.43,0,0,1-3-.22,14.31,14.31,0,0,1-2.46-.63l1.78-7.65,1.41.38a6.17,6.17,0,0,0,1.57.21,7.18,7.18,0,0,0,5.31-2,12.62,12.62,0,0,0,3-5.14l.76-2.63-16.4-41.23h9.94l7.23,20.49q.93,2.71,1.83,5.73c.59,2,1.2,4,1.82,6h.34q.76-2.9,1.58-5.91c.53-2,1.06-4,1.57-5.82l6.29-20.49h9.43l-15.13,43.61a44.71,44.71,0,0,1-2.8,6.37,20.86,20.86,0,0,1-3.53,4.8,13.89,13.89,0,0,1-4.59,3.06A15.69,15.69,0,0,1,996.25,1000Z"/>
  </g>
  <rect class="cls-3" x="126" y="858" width="1814" height="245" rx="57.89" ry="57.89"/>
  <path class="cls-3" d="M126,1448.73v56a62.25,62.25,0,0,0-.39,6.86v280.09l48.82-48.82,174.74,169.6,169.6-169.6,169.59,169.6L858,1742.87l174.74,169.6,169.6-169.6,169.6,169.6,174.74-169.6,169.59,169.6,169.6-169.6,54,52.42V1550.76c.12-1.53.2-3.08.2-4.65V1449"/>
  <path class="graphicAccent" d="M1592.07,861h291.42c36.51,0,57.51,26,57.51,58v129c0,32-22,58-57.51,58H1595.57"/>
  <path class="graphicAccent" d="M1941,1452V1299.89a58.06,58.06,0,0,0-57.89-57.89H184.89A58.06,58.06,0,0,0,127,1299.89v151.84"/>
</svg>
