<svg xmlns="http://www.w3.org/2000/svg" xmlns:xlink="http://www.w3.org/1999/xlink" viewBox="0 0 901.85 657.61"><defs><style>.cls-1{fill:none;}.cls-2{fill:#58e86a;}.cls-3{clip-path:url(#clip-path);}.cls-4{fill:#fff;}</style><clipPath id="clip-path"><path class="cls-1" d="M59.71,485.77,7.31,324.66,454.58,0,901.85,324.66l-52.34,161a1318.13,1318.13,0,0,0-789.8.15Z"/></clipPath></defs><title>Black (small)</title><g id="Layer_2" data-name="Layer 2"><g id="Layer_1-2" data-name="Layer 1"><g id="Logo"><path d="M175.39,596.35,183,624l-14.48,4q-18.44,5.06-31.18-1.26t-18.53-27.37l-10.57-38.55L94.1,564.66l-7.42-27.08,14.1-3.87L93.71,508l32.16-8.82,7.07,25.76L154,519.11l7.43,27.08L140.36,552l10.73,39.11q1.71,6.21,4.91,8t9.23.1Z"/><path d="M242.6,505.45a34,34,0,0,1,15.75,12.84L254.9,498.9l32.64-5.8,19,107.13L274,606l-3.45-19.39a34,34,0,0,1-10.35,17.49q-7.84,7.14-20.13,9.32a44.12,44.12,0,0,1-24.89-2.4,46.09,46.09,0,0,1-19.91-16.17Q187,583.48,184,566.77q-3-16.89.84-30.35A46.18,46.18,0,0,1,198,514.47a44.15,44.15,0,0,1,22.53-10.84Q232.78,501.46,242.6,505.45Zm-22.19,35q-5.21,8.06-3,20.34t9.85,18.06q7.65,5.76,18.22,3.89a22.54,22.54,0,0,0,15.72-10.13q5.37-8.28,3.25-20.18-2.16-12.11-10-17.93t-18.24-4Q225.61,532.44,220.41,540.49Z"/><path d="M412.39,488.76A46.19,46.19,0,0,1,430.34,507q6.92,12.18,8,29.3,1.07,16.92-4.27,30a46,46,0,0,1-15.51,20.42,44.09,44.09,0,0,1-23.62,8.23q-12.45.78-21.76-4.29a32.86,32.86,0,0,1-14-14.56l4.5,71.43-33.28,2.09-10.1-160.36,33.28-2.1,1.24,19.66a32.86,32.86,0,0,1,12.07-16.2q8.6-6.19,21.05-7A44.13,44.13,0,0,1,412.39,488.76Zm-50.1,32.86q-6.27,7.53-5.49,19.78.75,12.08,7.92,18.85t17.68,6.11q10.69-.68,16.78-8.09t5.3-19.87q-.8-12.45-7.75-19t-17.67-5.92Q368.56,514.09,362.29,521.62Z"/><path class="cls-2" d="M517.89,496.66q.61-16-13.22-16.52-7.79-.3-11.61,5T488.41,502l-32.54-1.27q2.14-25.1,16.67-37.21t36-11.28q22.39.87,33.36,12.62t10.25,29.87q-.78,20.07-16.92,38.66a143.64,143.64,0,0,1-38.09,31l54.36,2.12-1.05,26.89-98.2-3.83,1-24.94Q516.87,522.78,517.89,496.66Z"/><path d="M642.15,501.51a34,34,0,0,1,10.93,17.14l2.81-19.5,32.81,4.73L673.28,611a62.4,62.4,0,0,1-9.69,26.28,44.85,44.85,0,0,1-20.52,16.65q-13,5.42-30.75,2.87-24.33-3.51-37.24-17.09T562.1,606l32.62,4.69A16.49,16.49,0,0,0,600.29,622q5,4.46,13.85,5.73,10.23,1.47,17.35-3.51t9-17.91l2.72-18.92a33.93,33.93,0,0,1-15.32,13.36q-9.68,4.32-22,2.54A44.06,44.06,0,0,1,583,593.17q-9.57-8.17-13.84-21.59t-1.85-30.22q2.44-17,10.31-28.56a46.18,46.18,0,0,1,19.35-16.71,44.06,44.06,0,0,1,24.8-3.23Q634.08,494.63,642.15,501.51Zm-32,26.32q-7.47,6-9.25,18.37t3.69,20.23q5.46,7.88,16.08,9.41,10.43,1.5,18.11-4.69T648.14,553q1.75-12.15-3.9-20.16t-16.06-9.5Q617.56,521.81,610.1,527.83Z"/><path d="M796.66,535.74a49.34,49.34,0,0,1,14.58,23.82q3.9,14.12-.36,30.53T796.36,617a49.32,49.32,0,0,1-24.31,13.74,65.83,65.83,0,0,1-56.15-14.56,49.16,49.16,0,0,1-14.67-23.84q-3.9-14.1.36-30.53T716.1,534.9a49.19,49.19,0,0,1,24.41-13.71,65.84,65.84,0,0,1,56.15,14.55Zm-50.89,16.83q-8.07,5.05-11.34,17.7t1.33,20.9a21.41,21.41,0,0,0,13.86,10.64,21.06,21.06,0,0,0,17.19-2.59q8-5,11.22-17.64t-1.21-21a21,21,0,0,0-13.74-10.71A21.22,21.22,0,0,0,745.77,552.57Z"/><g class="cls-3"><path class="cls-2" d="M59.71,485.77,7.31,324.66,454.58,0,901.85,324.66l-52.34,161a1318.13,1318.13,0,0,0-789.8.15Z"/><path class="cls-4" d="M525,363.3a47.21,47.21,0,0,0-11-26.56l-22.24,23.65L525,363.3Zm40,3.55c-4.34-23.33-8.62-46.34-13.06-70.27l-27.07,28.7c9.8,11.62,14.76,24.84,16,39.45L565,366.85Zm14.76-5.14,83.63-65L566,288.19c4.58,24.59,9.07,48.73,13.68,73.52Zm-77.1-35.38c-18.24-12.53-43.3-11-60.23,3.29A50.47,50.47,0,0,0,483.34,418c20.38-3.5,38.66-21,40.38-39.11l-4.84-.43q-19.68-1.71-39.36-3.45c-4.58-.41-9.65,0-11.67-5.59-1.93-5.32,2-8.29,5-11.53,9.82-10.45,19.66-20.87,29.75-31.57Zm185,13.59C662.92,345.86,647,372.36,652.06,398c5.23,26.3,30.61,44.18,56.86,40.06,26.89-4.21,45.82-28.6,42.89-55.26-2.76-25.12-25.65-46.28-48.77-44.76,1,6.51,1.9,13,2.87,19.5,1.17,7.84,2.41,15.66,3.53,23.51.74,5.18-1.87,9.18-6.21,9.79-4.68.66-8-2-9-7.26-.25-1.32-.43-2.66-.63-4-2-13.13-4-26.27-6-39.72Zm79.57,46.78c.28,16.77-5.71,33.92-17.47,46.07-9.81,10.12-22.22,17.58-36.2,20.07a65.68,65.68,0,0,1-76.18-49.74A65.29,65.29,0,0,1,644,355.86a63.29,63.29,0,0,1,18.71-20.72c6.76-4.72,16.13-11,22.4-12.14l-3.27-22.85s-68.47,55.05-101.09,80.14a14.9,14.9,0,0,1-9,2.65c-9.41-.39-31.9-2.79-31.9-2.79-2,21-21,51-68,53-38-1-56.24-21.55-61.6-53.68-4.89-29.29,10.4-58.93,37.51-71.26a65.48,65.48,0,0,1,32.91-5.46c12.18,1.16,24.18,4.4,33.62,11.2,0,0,21.53-22.73,32.39-34.51a6.38,6.38,0,0,0,1-4.75c-1.69-10-3.69-20-5.44-30-1.25-7.13,2.28-11,9.41-10.42,9.71.78,19.41,1.65,29.11,2.54,5.56.51,8.66,3.88,8.13,8.64-.51,4.61-3.92,7-9.44,6.57-6.55-.53-13.09-1.14-20.39-1.78,1.1,6.12,2.32,11.64,3,17.21.45,3.65,1.92,4.86,5.64,5.18,35.39,2.93,109.24,9.45,111.3,9.63-1.21-8-2.19-15.25-3.51-22.43-.2-1.06-2-2.42-3.2-2.58-5.34-.71-10.74-1-16.1-1.53-5.62-.53-8.91-3.78-8.6-8.37s4-7.37,9.69-6.93c7.92.62,15.83,1.33,23.73,2.07,6.05.56,7.87,2.2,8.81,8.17,1.73,11.08,3.35,22.18,5,33.28,1.91,12.68,3.84,25.35,5.76,38.1,0-.21,9.37,0,10.22.13C727,324.33,743.5,333,753.4,346.22A69.47,69.47,0,0,1,767.21,386.7Z"/><path class="cls-4" d="M36.88,453.51l-4.12-11.27c47.07-17.18,127.07-40.41,240.92-53.44,68.05-7.8,116.69-8.25,117.17-8.25l.09,12C389,392.56,198,394.69,36.88,453.51Z"/><path class="cls-4" d="M21.22,408.86l-4.5-11.13c47.93-19.38,129-45.6,243.06-60.39,68.18-8.85,116.59-9.41,117.07-9.42l.12,12c-.48,0-48.32.57-115.83,9.34C198.93,357.34,106.81,374.24,21.22,408.86Z"/><path class="cls-4" d="M5.23,362,0,351.15c81-39.25,202-58.77,289.34-68.23,94.36-10.23,170.75-11.25,171.51-11.26l.15,12c-.76,0-76.67,1-170.48,11.2C166.72,308.29,68.07,331.49,5.23,362Z"/></g></g></g></g></svg>