<svg id="Layer_3" data-name="Layer 3" xmlns="http://www.w3.org/2000/svg" viewBox="0 0 2061.69 2061.69">
  <defs>
    <style>
      .cls-1 {
        fill: #fff;
      }
    </style>
  </defs>
  <title>2Artboard 9</title>
  <g>
    <path class="cls-1" d="M1609.44,1385v-9.74q7.07-6.62,12.93-12.35t10.09-10.79a59.12,59.12,0,0,0,6.62-9.4,17.36,17.36,0,0,0,2.37-8.29c0-3.64-.92-6.4-2.78-8.3a10.26,10.26,0,0,0-7.66-2.84,12,12,0,0,0-7.19,2.26,39.39,39.39,0,0,0-5.91,5.28l-9.28-9.16a42.18,42.18,0,0,1,11.13-8.76,29.07,29.07,0,0,1,13.57-3,28,28,0,0,1,9.92,1.68,22.76,22.76,0,0,1,7.72,4.76,20.77,20.77,0,0,1,5,7.36,25.49,25.49,0,0,1,1.74,9.63,24.73,24.73,0,0,1-2,9.46,50.68,50.68,0,0,1-5.28,9.62,100.56,100.56,0,0,1-7.54,9.63q-4.23,4.82-8.75,9.46,2.77-.36,6.2-.64t6.09-.29h14.85V1385Z"/>
    <path class="cls-1" d="M1697.13,1385v-57.53h13.92l1.16,7.42h.47a46.35,46.35,0,0,1,7.65-6.21,17.74,17.74,0,0,1,9.75-2.6q6.15,0,9.92,2.49a17.11,17.11,0,0,1,6,7.13,50.6,50.6,0,0,1,8.06-6.78,17.54,17.54,0,0,1,10-2.84q9.27,0,13.63,6.2t4.35,17V1385H1765v-33.52q0-6.27-1.68-8.59t-5.39-2.31q-4.29,0-9.86,5.56V1385h-17v-33.52c0-4.18-.57-7-1.69-8.59s-2.92-2.31-5.39-2.31q-4.41,0-9.74,5.56V1385Z"/>
    <path class="cls-1" d="M1805,1319a10.15,10.15,0,0,1-7.07-2.5,8.22,8.22,0,0,1-2.79-6.43,8.06,8.06,0,0,1,2.79-6.38,11.56,11.56,0,0,1,14.21,0,8.16,8.16,0,0,1,2.72,6.38,8.33,8.33,0,0,1-2.72,6.43A10.14,10.14,0,0,1,1805,1319Zm-8.46,66v-57.53h17V1385Z"/>
    <path class="cls-1" d="M1828.56,1385v-57.53h13.92l1.16,7.31h.46a46.6,46.6,0,0,1,8.12-6.1,20,20,0,0,1,10.33-2.6q9.39,0,13.63,6.14t4.23,17.06V1385h-17.05v-33.52q0-6.27-1.68-8.59t-5.4-2.31a10.23,10.23,0,0,0-5.56,1.45,32.65,32.65,0,0,0-5.11,4.11V1385Z"/>
  </g>
  <g>
    <path class="cls-1" d="M267.38,1379.9l-5.07-7q-10.47-14.48-20.93-28.94a31.25,31.25,0,0,1-6-21.33,32.15,32.15,0,1,1,57.52,22.08c-5.42,7.33-10.7,14.77-16,22.16l-8.88,12.28Zm.05-39.53a15.35,15.35,0,1,0-15.4-15.16A15.38,15.38,0,0,0,267.43,1340.37Z"/>
    <path class="cls-1" d="M291.77,1357.33c-4.19,5.8-8.35,11.61-12.53,17.4l-11.16,15.45-.71,1c-2.17-3-4.26-5.92-6.36-8.82l-12-16.56-52,14.49L254.67,1412l90.51-25.22Z"/>
  </g>
  <g>
    <path class="cls-1" d="M392.94,1393.29v-75.63h26a53.84,53.84,0,0,1,11.72,1.22,26.29,26.29,0,0,1,9.51,4.06,20.09,20.09,0,0,1,6.44,7.54A25.43,25.43,0,0,1,449,1342a25.94,25.94,0,0,1-2.38,11.48,22.31,22.31,0,0,1-6.44,8,27.43,27.43,0,0,1-9.39,4.64,41.87,41.87,0,0,1-11.37,1.51H410v25.63ZM410,1354.08h8.35q13.92,0,13.92-12.06,0-5.91-3.71-8.35t-10.67-2.44H410Z"/>
    <path class="cls-1" d="M460.68,1393.29v-57.53H474.6l1.16,10.09h.47a22.18,22.18,0,0,1,7.54-8.7,16.35,16.35,0,0,1,8.81-2.79,23.08,23.08,0,0,1,4,.29,12.94,12.94,0,0,1,2.84.87l-2.79,14.74a28.36,28.36,0,0,0-3-.7,20.57,20.57,0,0,0-3.25-.23,12.42,12.42,0,0,0-6.79,2.32q-3.54,2.32-5.85,8.23v33.41Z"/>
    <path class="cls-1" d="M515.32,1327.29a10.19,10.19,0,0,1-7.08-2.5,8.24,8.24,0,0,1-2.78-6.43,8.08,8.08,0,0,1,2.78-6.38,11.56,11.56,0,0,1,14.21,0,8.14,8.14,0,0,1,2.73,6.38,8.3,8.3,0,0,1-2.73,6.43A10.1,10.1,0,0,1,515.32,1327.29Zm-8.47,66v-57.53h17v57.53Z"/>
    <path class="cls-1" d="M538.87,1393.29v-57.53h13.92l1.16,7.3h.46a46.17,46.17,0,0,1,8.12-6.09,19.88,19.88,0,0,1,10.32-2.61q9.4,0,13.63,6.15t4.24,17v35.73H573.67v-33.52c0-4.18-.57-7-1.69-8.59s-2.92-2.32-5.39-2.32a10.36,10.36,0,0,0-5.57,1.45,32.3,32.3,0,0,0-5.1,4.12v38.86Z"/>
    <path class="cls-1" d="M630.27,1394.68a30.16,30.16,0,0,1-11.19-2,26,26,0,0,1-9-5.85,27.18,27.18,0,0,1-6-9.46,34.91,34.91,0,0,1-2.21-12.82,32,32,0,0,1,2.44-12.81,27.8,27.8,0,0,1,6.55-9.46,28.74,28.74,0,0,1,9.57-5.86,32.44,32.44,0,0,1,11.37-2,24.06,24.06,0,0,1,9.45,1.74,29.78,29.78,0,0,1,7.37,4.41l-8,11q-4.07-3.36-7.77-3.36a12.05,12.05,0,0,0-9.87,4.41q-3.59,4.41-3.59,11.94t3.65,12a11.48,11.48,0,0,0,9.23,4.41,12.65,12.65,0,0,0,5.39-1.22,27.78,27.78,0,0,0,4.93-3l6.73,11.14a26.19,26.19,0,0,1-9.28,5.28A32.61,32.61,0,0,1,630.27,1394.68Z"/>
    <path class="cls-1" d="M681.89,1394.68a31.83,31.83,0,0,1-11.48-2,26.4,26.4,0,0,1-9.28-5.91,27,27,0,0,1-6.15-9.46,34.44,34.44,0,0,1-2.2-12.76,32.64,32.64,0,0,1,2.32-12.58,29.55,29.55,0,0,1,6.09-9.51,26.4,26.4,0,0,1,8.64-6,25.4,25.4,0,0,1,10.09-2.09,25.71,25.71,0,0,1,10.73,2.09,21.2,21.2,0,0,1,7.66,5.8,24.9,24.9,0,0,1,4.58,8.76,38.31,38.31,0,0,1,1.51,11,41.11,41.11,0,0,1-.23,4.41c-.16,1.39-.32,2.44-.47,3.13H669.25q1.15,6.27,5.16,9.22a16,16,0,0,0,9.8,3,23.59,23.59,0,0,0,12.41-3.83l5.69,10.33a37.9,37.9,0,0,1-9.8,4.75A34.5,34.5,0,0,1,681.89,1394.68Zm-12.76-36.42H689.9a13.05,13.05,0,0,0-2.21-7.89q-2.21-3-7.42-3a10.6,10.6,0,0,0-7.14,2.66Q670.06,1352.69,669.13,1358.26Z"/>
    <path class="cls-1" d="M733.16,1394.68a33.49,33.49,0,0,1-11.65-2.2,35.87,35.87,0,0,1-10.39-5.8l7.66-10.67a34.45,34.45,0,0,0,7.54,4.52,18.66,18.66,0,0,0,7.31,1.51c2.55,0,4.41-.42,5.57-1.28a4.18,4.18,0,0,0,1.74-3.59,3.65,3.65,0,0,0-1-2.5,10.27,10.27,0,0,0-2.67-2,28.22,28.22,0,0,0-3.77-1.68q-2.09-.75-4.29-1.68a55,55,0,0,1-5.34-2.44,22,22,0,0,1-4.87-3.42,16.63,16.63,0,0,1-3.59-4.75,13.73,13.73,0,0,1-1.4-6.33,17.15,17.15,0,0,1,1.57-7.3,15.52,15.52,0,0,1,4.47-5.69,22.1,22.1,0,0,1,7-3.65,28.8,28.8,0,0,1,9-1.34,27.79,27.79,0,0,1,11.6,2.27,46,46,0,0,1,8.7,5l-7.65,10.21a30.54,30.54,0,0,0-6.15-3.6,15.37,15.37,0,0,0-6-1.27q-6.49,0-6.5,4.52a3.35,3.35,0,0,0,.93,2.38,9.19,9.19,0,0,0,2.49,1.8,32.84,32.84,0,0,0,3.6,1.56l4.23,1.57q2.79,1,5.51,2.38a23,23,0,0,1,5,3.3,15.17,15.17,0,0,1,3.66,4.82,15.38,15.38,0,0,1,1.39,6.78,17.74,17.74,0,0,1-1.51,7.31,16.06,16.06,0,0,1-4.52,5.86,22.62,22.62,0,0,1-7.43,3.94A32.59,32.59,0,0,1,733.16,1394.68Z"/>
    <path class="cls-1" d="M815.29,1394.68A42.5,42.5,0,0,1,800.5,1392a38.64,38.64,0,0,1-13.17-8.18l9.75-11.72a36.69,36.69,0,0,0,9,5.69,23.55,23.55,0,0,0,9.68,2.2c3.56,0,6.21-.65,8-2a6.33,6.33,0,0,0,2.61-5.34,5.82,5.82,0,0,0-.75-3,7.18,7.18,0,0,0-2.21-2.26,20.77,20.77,0,0,0-3.48-1.86l-4.46-1.91-9.86-4.18a29,29,0,0,1-5.63-3,24.28,24.28,0,0,1-4.87-4.35,19.78,19.78,0,0,1-3.43-5.8,20.62,20.62,0,0,1-1.27-7.48,20.12,20.12,0,0,1,2-8.76,21.84,21.84,0,0,1,5.57-7.19,26.58,26.58,0,0,1,8.53-4.81,32.35,32.35,0,0,1,10.84-1.74,35.16,35.16,0,0,1,13,2.55,33.17,33.17,0,0,1,11.31,7.42l-8.7,10.79a32.84,32.84,0,0,0-7.42-4.46,20.9,20.9,0,0,0-8.24-1.57,12.17,12.17,0,0,0-7,1.8,5.78,5.78,0,0,0-2.61,5,5,5,0,0,0,.87,3,8.66,8.66,0,0,0,2.44,2.21,25.27,25.27,0,0,0,3.65,1.85c1.4.58,2.9,1.22,4.53,1.92l9.74,3.94a26.59,26.59,0,0,1,11,7.66c2.67,3.24,4,7.54,4,12.87a21.51,21.51,0,0,1-7.49,16.42,27.84,27.84,0,0,1-9,5.1A35.45,35.45,0,0,1,815.29,1394.68Z"/>
    <path class="cls-1" d="M874.22,1394.68a23,23,0,0,1-9.11-1.62,16,16,0,0,1-6.15-4.52,18.66,18.66,0,0,1-3.48-7,35.43,35.43,0,0,1-1.1-9.11V1349.1h-7.89v-12.65l8.82-.69,2-15.32h14.15v15.32h13.81v13.34H871.43v23.08q0,4.88,2,7a7.09,7.09,0,0,0,5.4,2.14,12.23,12.23,0,0,0,2.84-.34,19.67,19.67,0,0,0,2.61-.82L887,1392.6q-2.33.69-5.45,1.39A34.32,34.32,0,0,1,874.22,1394.68Z"/>
    <path class="cls-1" d="M896.49,1393.29v-57.53h13.92l1.16,10.09H912a22.18,22.18,0,0,1,7.54-8.7,16.39,16.39,0,0,1,8.82-2.79,23,23,0,0,1,4,.29,12.78,12.78,0,0,1,2.84.87l-2.78,14.74a28.5,28.5,0,0,0-3-.7,20.52,20.52,0,0,0-3.24-.23,12.42,12.42,0,0,0-6.79,2.32q-3.54,2.32-5.86,8.23v33.41Z"/>
    <path class="cls-1" d="M967.25,1394.68a31.92,31.92,0,0,1-11.49-2,26.35,26.35,0,0,1-9.27-5.91,26.86,26.86,0,0,1-6.15-9.46,34.43,34.43,0,0,1-2.21-12.76,32.82,32.82,0,0,1,2.32-12.58,29.89,29.89,0,0,1,6.09-9.51,26.51,26.51,0,0,1,8.64-6,25.45,25.45,0,0,1,10.1-2.09,25.71,25.71,0,0,1,10.73,2.09,21.25,21.25,0,0,1,7.65,5.8,24.76,24.76,0,0,1,4.59,8.76,38.31,38.31,0,0,1,1.5,11,41.11,41.11,0,0,1-.23,4.41c-.15,1.39-.31,2.44-.46,3.13H954.61q1.15,6.27,5.16,9.22a16,16,0,0,0,9.8,3,23.61,23.61,0,0,0,12.41-3.83l5.69,10.33a37.81,37.81,0,0,1-9.81,4.75A34.39,34.39,0,0,1,967.25,1394.68Zm-12.76-36.42h20.76a13,13,0,0,0-2.2-7.89c-1.47-2-3.94-3-7.43-3a10.59,10.59,0,0,0-7.13,2.66Q955.42,1352.69,954.49,1358.26Z"/>
    <path class="cls-1" d="M1027.34,1394.68a31.92,31.92,0,0,1-11.49-2,26.4,26.4,0,0,1-9.28-5.91,27,27,0,0,1-6.15-9.46,34.44,34.44,0,0,1-2.2-12.76,32.64,32.64,0,0,1,2.32-12.58,29.89,29.89,0,0,1,6.09-9.51,26.4,26.4,0,0,1,8.64-6,25.4,25.4,0,0,1,10.09-2.09,25.68,25.68,0,0,1,10.73,2.09,21.2,21.2,0,0,1,7.66,5.8,24.58,24.58,0,0,1,4.58,8.76,38,38,0,0,1,1.51,11,41.11,41.11,0,0,1-.23,4.41,31.28,31.28,0,0,1-.47,3.13h-34.45c.77,4.18,2.5,7.25,5.16,9.22a16,16,0,0,0,9.81,3,23.64,23.64,0,0,0,12.41-3.83l5.68,10.33a37.74,37.74,0,0,1-9.8,4.75A34.44,34.44,0,0,1,1027.34,1394.68Zm-12.76-36.42h20.76a13.12,13.12,0,0,0-2.2-7.89q-2.21-3-7.43-3a10.57,10.57,0,0,0-7.13,2.66Q1015.5,1352.69,1014.58,1358.26Z"/>
    <path class="cls-1" d="M1082.67,1394.68a23,23,0,0,1-9.11-1.62,16,16,0,0,1-6.15-4.52,18.66,18.66,0,0,1-3.48-7,35.43,35.43,0,0,1-1.1-9.11V1349.1h-7.89v-12.65l8.82-.69,2-15.32h14.15v15.32h13.81v13.34h-13.81v23.08q0,4.88,2,7a7.09,7.09,0,0,0,5.4,2.14,12.23,12.23,0,0,0,2.84-.34,19.67,19.67,0,0,0,2.61-.82l2.67,12.42q-2.33.69-5.45,1.39A34.32,34.32,0,0,1,1082.67,1394.68Z"/>
  </g>
  <path class="cls-1" d="M1830.7,962a41.42,41.42,0,0,0-17.71,3.92L1785.81,923a5.18,5.18,0,0,0-4.38-2.41h-22a3.88,3.88,0,0,0-3.88,3.88v2.59a3.88,3.88,0,0,0,3.88,3.88h19.15l13.11,20.7h-43.9v-6.47a3.88,3.88,0,0,0-3.88-3.88h-27.17a5.18,5.18,0,1,0,0,10.35h18.11l-10.29,14.55a41.4,41.4,0,1,0,21.92,47.55h16.83a5.16,5.16,0,0,0,4.24-2.21L1800.15,965l4.1,6.48a41.4,41.4,0,1,0,67.74,32.58,41.75,41.75,0,0,0-41.29-42Zm-124.3,72.45a31.05,31.05,0,1,1,12.13-59.63L1697,1005.61a5.18,5.18,0,0,0,4.24,8.14h34.45A31.09,31.09,0,0,1,1706.4,1034.45Zm31-31.05h-26.29l16.09-23A31,31,0,0,1,1737.45,1003.4Zm23.18,0H1747.8a41.3,41.3,0,0,0-14.57-31.52l6.91-9.88h49.47l-29,41.4Zm68.74,31a31,31,0,0,1-19.52-54.11l17.07,26.94a3.87,3.87,0,0,0,5.35,1.2l2.19-1.38a3.88,3.88,0,0,0,1.2-5.36l-17.07-27a30.76,30.76,0,0,1,12-2.42,31.05,31.05,0,1,1-1.22,62.08Z"/>
  <g>
    <path class="graphicFont" d="M563.94,521.9V674.4H533.27V608.09H468V674.4H437.58V521.9H468v61.78h65.23V521.9Z"/>
    <path class="graphicFont" d="M703,620.4H615.35q.64,16,8.64,23.54t19.87,7.56q10.57,0,17.6-5.18a23,23,0,0,0,9-14h32.18a51.57,51.57,0,0,1-10.15,22.46,53.16,53.16,0,0,1-20,15.56,64.15,64.15,0,0,1-27.11,5.61q-17.49,0-31.1-7.45a52.34,52.34,0,0,1-21.17-21.28q-7.56-13.81-7.56-32.61t7.56-32.73a51.48,51.48,0,0,1,21.17-21.27q13.61-7.35,31.1-7.35,17.71,0,31,7.35a51.84,51.84,0,0,1,20.52,20.19q7.23,12.86,7.23,29.27A57.65,57.65,0,0,1,703,620.4Zm-37.26-35.64q-8.31-7.56-20.41-7.56-12.32,0-20.74,7.56T615.35,607h58.1Q674.1,592.33,665.78,584.76Z"/>
    <path class="graphicFont" d="M756.18,514.56V674.4H725.72V514.56Z"/>
    <path class="graphicFont" d="M814.28,514.56V674.4H783.82V514.56Z"/>
    <path class="graphicFont" d="M928.65,560.57a53.68,53.68,0,0,1,21.92,21.27q8,13.93,8,32.73t-8,32.61a54.59,54.59,0,0,1-21.92,21.28,70,70,0,0,1-62.86,0,54.72,54.72,0,0,1-21.92-21.28q-8-13.81-8-32.61t8-32.73a53.8,53.8,0,0,1,21.92-21.27,70.88,70.88,0,0,1,62.86,0Zm-53,28q-8.85,9-8.85,26t8.85,26a30.52,30.52,0,0,0,43.2,0q8.86-9,8.86-26t-8.86-26a30.52,30.52,0,0,0-43.2,0Z"/>
    <path class="graphicFont" d="M1004.58,678.29q0,13.38-7,22T975.85,709V697.3c3.74,0,6.48-.9,8.2-2.7s2.6-5,2.6-9.62v-2.16H972.82V654.74h26.57A57.48,57.48,0,0,1,1004.58,678.29Z"/>
    <path class="graphicFont" d="M1160.09,521.9V629.47q0,22-12.2,34.24t-33.81,12.2q-23.32,0-36.93-13.39t-13.61-38.23h30q0,11.65,4.86,17.93t14.37,6.26q8.63,0,12.74-5.08t4.1-13.93V521.9Z"/>
    <path class="graphicFont" d="M1273.38,560.57a53.74,53.74,0,0,1,21.92,21.27q8,13.93,8,32.73t-8,32.61a54.66,54.66,0,0,1-21.92,21.28,70,70,0,0,1-62.86,0,54.59,54.59,0,0,1-21.92-21.28q-8-13.81-8-32.61t8-32.73a53.68,53.68,0,0,1,21.92-21.27,70.88,70.88,0,0,1,62.86,0Zm-53,28q-8.86,9-8.86,26t8.86,26a30.52,30.52,0,0,0,43.2,0q8.85-9,8.86-26t-8.86-26a30.52,30.52,0,0,0-43.2,0Z"/>
    <path class="graphicFont" d="M1429.22,566.62q12.32,13.61,12.31,38.23V674.4h-30.24V608.3q0-14.25-7.34-22.14t-20.09-7.88q-13,0-20.73,8.42t-7.78,24.2v63.5h-30.46V514.56h30.46v64.15a38.18,38.18,0,0,1,15.66-18.9,46.59,46.59,0,0,1,25.16-6.8Q1416.92,553,1429.22,566.62Z"/>
    <path class="graphicFont" d="M1572.64,566.62Q1585,580.23,1585,604.85V674.4h-30.25V608.3q0-14.25-7.34-22.14t-20.09-7.88q-13,0-20.73,8.42t-7.78,24.2v63.5h-30.45V554.74h30.45v24a38.18,38.18,0,0,1,15.66-18.9,46.59,46.59,0,0,1,25.16-6.8Q1560.34,553,1572.64,566.62Z"/>
  </g>
  <g>
    <path class="graphicFont" d="M249.92,1028.84a36.81,36.81,0,0,1-13.58-2.5,31.83,31.83,0,0,1-11.19-7.36,34.74,34.74,0,0,1-7.6-12.12,46.53,46.53,0,0,1-2.78-16.77,45.34,45.34,0,0,1,2.9-16.76,37.93,37.93,0,0,1,7.77-12.47,32.74,32.74,0,0,1,11.37-7.77,35.64,35.64,0,0,1,13.69-2.67,28.45,28.45,0,0,1,13.1,3,36,36,0,0,1,9.63,6.9l-9.05,10.91a28.69,28.69,0,0,0-6.09-4.35,15.33,15.33,0,0,0-7.25-1.69,16.25,16.25,0,0,0-7.25,1.69,17.13,17.13,0,0,0-5.91,4.81,23.77,23.77,0,0,0-4,7.66,33.24,33.24,0,0,0-1.45,10.2q0,11.73,5,18.16a16,16,0,0,0,13.34,6.44,16.8,16.8,0,0,0,8.29-2,25.66,25.66,0,0,0,6.44-5.05l9.05,10.67Q264.88,1028.85,249.92,1028.84Z"/>
    <path class="graphicFont" d="M300.14,1028.84a17.61,17.61,0,0,1-7.42-1.39,12.07,12.07,0,0,1-4.82-3.89,16.42,16.42,0,0,1-2.61-6,35.74,35.74,0,0,1-.81-7.95V946.13h17v64.15a5.39,5.39,0,0,0,1,3.71,2.8,2.8,0,0,0,2,1h1a3.58,3.58,0,0,0,1.1-.23l2.09,12.65a18.67,18.67,0,0,1-3.54,1A27.56,27.56,0,0,1,300.14,1028.84Z"/>
    <path class="graphicFont" d="M342.36,1028.84a28.36,28.36,0,0,1-10.55-2,26.69,26.69,0,0,1-9-5.86,28.16,28.16,0,0,1-6.21-9.45,36.58,36.58,0,0,1,0-25.64,28.16,28.16,0,0,1,6.21-9.45,26.54,26.54,0,0,1,9-5.86,28.36,28.36,0,0,1,10.55-2,27.91,27.91,0,0,1,10.5,2,26.69,26.69,0,0,1,8.93,5.86,28.16,28.16,0,0,1,6.21,9.45,36.58,36.58,0,0,1,0,25.64,28.16,28.16,0,0,1-6.21,9.45,26.84,26.84,0,0,1-8.93,5.86A27.91,27.91,0,0,1,342.36,1028.84Zm0-13.81a8.65,8.65,0,0,0,7.89-4.4q2.67-4.41,2.67-12t-2.67-11.95a9.31,9.31,0,0,0-15.83,0q-2.61,4.41-2.61,11.95t2.61,12A8.61,8.61,0,0,0,342.36,1015Z"/>
    <path class="graphicFont" d="M398.39,1028.84a33.5,33.5,0,0,1-11.65-2.21,35.64,35.64,0,0,1-10.39-5.8l7.66-10.67a34.92,34.92,0,0,0,7.54,4.53,18.83,18.83,0,0,0,7.31,1.5q3.83,0,5.56-1.27a4.21,4.21,0,0,0,1.75-3.6,3.66,3.66,0,0,0-1-2.49,10.06,10.06,0,0,0-2.67-2,25.88,25.88,0,0,0-3.77-1.68c-1.39-.51-2.82-1.07-4.29-1.69a52.56,52.56,0,0,1-5.34-2.43,22.72,22.72,0,0,1-4.87-3.42,16.9,16.9,0,0,1-3.6-4.76,13.81,13.81,0,0,1-1.39-6.32,17.16,17.16,0,0,1,1.57-7.31,15.49,15.49,0,0,1,4.47-5.68,21.91,21.91,0,0,1,7-3.66,28.81,28.81,0,0,1,9-1.33,27.79,27.79,0,0,1,11.6,2.26,46,46,0,0,1,8.7,5.05L413.94,986a30.47,30.47,0,0,0-6.15-3.59,15.38,15.38,0,0,0-6-1.28c-4.34,0-6.5,1.51-6.5,4.53a3.32,3.32,0,0,0,.93,2.37,9.19,9.19,0,0,0,2.49,1.8,32,32,0,0,0,3.6,1.57l4.23,1.56q2.79,1.05,5.51,2.38a22.66,22.66,0,0,1,5,3.31,15.13,15.13,0,0,1,3.66,4.81,15.43,15.43,0,0,1,1.39,6.79,17.78,17.78,0,0,1-1.51,7.31,16.11,16.11,0,0,1-4.52,5.85,22.64,22.64,0,0,1-7.43,4A32.88,32.88,0,0,1,398.39,1028.84Z"/>
    <path class="graphicFont" d="M458.6,1028.84a32.14,32.14,0,0,1-11.49-2,26.42,26.42,0,0,1-9.28-5.92,27.05,27.05,0,0,1-6.15-9.45,34.47,34.47,0,0,1-2.2-12.76,32.69,32.69,0,0,1,2.32-12.59,29.89,29.89,0,0,1,6.09-9.51,26.38,26.38,0,0,1,8.64-6,25.23,25.23,0,0,1,10.09-2.09,25.52,25.52,0,0,1,10.73,2.09,21.08,21.08,0,0,1,7.66,5.8,24.45,24.45,0,0,1,4.58,8.75,38,38,0,0,1,1.51,11,41.06,41.06,0,0,1-.23,4.4,31.58,31.58,0,0,1-.47,3.14H446c.77,4.17,2.5,7.25,5.16,9.22a16.07,16.07,0,0,0,9.81,3,23.73,23.73,0,0,0,12.41-3.83l5.68,10.32a37.77,37.77,0,0,1-9.8,4.76A34.44,34.44,0,0,1,458.6,1028.84Zm-12.76-36.43H466.6a13.11,13.11,0,0,0-2.2-7.88q-2.2-3-7.43-3a10.53,10.53,0,0,0-7.13,2.67Q446.77,986.85,445.84,992.41Z"/>
    <path class="graphicFont" d="M509.87,1028.84a33.56,33.56,0,0,1-11.66-2.21,35.45,35.45,0,0,1-10.38-5.8l7.65-10.67a34.92,34.92,0,0,0,7.54,4.53,18.83,18.83,0,0,0,7.31,1.5q3.82,0,5.57-1.27a4.2,4.2,0,0,0,1.74-3.6,3.61,3.61,0,0,0-1-2.49,9.9,9.9,0,0,0-2.67-2,25.4,25.4,0,0,0-3.77-1.68c-1.39-.51-2.82-1.07-4.29-1.69a51.44,51.44,0,0,1-5.33-2.43,22.78,22.78,0,0,1-4.88-3.42,17.05,17.05,0,0,1-3.59-4.76,13.68,13.68,0,0,1-1.39-6.32,17.15,17.15,0,0,1,1.56-7.31,15.59,15.59,0,0,1,4.47-5.68,21.91,21.91,0,0,1,7-3.66,28.83,28.83,0,0,1,9-1.33,27.85,27.85,0,0,1,11.6,2.26,46.62,46.62,0,0,1,8.7,5.05L525.41,986a30.47,30.47,0,0,0-6.15-3.59,15.38,15.38,0,0,0-6-1.28q-6.5,0-6.5,4.53a3.32,3.32,0,0,0,.93,2.37,9.1,9.1,0,0,0,2.5,1.8,31.76,31.76,0,0,0,3.59,1.57L518,993q2.78,1.05,5.51,2.38a22.6,22.6,0,0,1,5,3.31,15.13,15.13,0,0,1,3.66,4.81,15.29,15.29,0,0,1,1.39,6.79,17.62,17.62,0,0,1-1.51,7.31,16,16,0,0,1-4.52,5.85,22.53,22.53,0,0,1-7.43,4A32.86,32.86,0,0,1,509.87,1028.84Z"/>
    <path class="graphicFont" d="M564.16,1028.84a22.83,22.83,0,0,1-9.11-1.63,16,16,0,0,1-6.15-4.52,18.51,18.51,0,0,1-3.48-7,35.35,35.35,0,0,1-1.1-9.1V983.25h-7.89V970.61l8.82-.7,2-15.31h14.15v15.31h13.8v13.34h-13.8v23.08q0,4.88,2,7a7.07,7.07,0,0,0,5.39,2.15,12.34,12.34,0,0,0,2.85-.35,19.18,19.18,0,0,0,2.61-.81l2.67,12.41c-1.55.46-3.37.93-5.46,1.39A33.48,33.48,0,0,1,564.16,1028.84Z"/>
    <path class="graphicFont" d="M611,1027.45V951.81h25.87a64.6,64.6,0,0,1,11,.87,26.21,26.21,0,0,1,8.82,3.08,16.36,16.36,0,0,1,5.91,5.8,17.42,17.42,0,0,1,2.15,9.05,19.06,19.06,0,0,1-.7,5.1,19.81,19.81,0,0,1-2,4.76,18.21,18.21,0,0,1-3.07,3.94,11.21,11.21,0,0,1-4.12,2.55v.47a19.08,19.08,0,0,1,5.33,2.14,16.9,16.9,0,0,1,4.3,3.66,16.42,16.42,0,0,1,2.89,5.16,20.2,20.2,0,0,1,1.05,6.78,20.75,20.75,0,0,1-2.26,10,19.46,19.46,0,0,1-6.27,6.9,28.77,28.77,0,0,1-9.33,4.06,47.26,47.26,0,0,1-11.49,1.34Zm17.05-45.36h8c4.17,0,7.21-.81,9.1-2.44a8.09,8.09,0,0,0,2.84-6.49q0-4.41-2.9-6.27T636.19,965h-8.12Zm0,32.13h9.63q14,0,14-10.21,0-5-3.49-7.13t-10.55-2.15h-9.63Z"/>
    <path class="graphicFont" d="M688.27,961.44A10.19,10.19,0,0,1,681.2,959a8.24,8.24,0,0,1-2.79-6.44,8.06,8.06,0,0,1,2.79-6.38,11.56,11.56,0,0,1,14.21,0,8.16,8.16,0,0,1,2.72,6.38,8.35,8.35,0,0,1-2.72,6.44A10.18,10.18,0,0,1,688.27,961.44Zm-8.46,66V969.91h17.05v57.54Z"/>
    <path class="graphicFont" d="M711.82,1027.45V946.13h16.59v46.63h.46l18.21-22.85h18.56l-20.18,23.66,21.69,33.88H748.71l-13-22.39-7.31,8.23v14.16Z"/>
    <path class="graphicFont" d="M797.89,1028.84a32,32,0,0,1-11.48-2,26.33,26.33,0,0,1-9.28-5.92,27.05,27.05,0,0,1-6.15-9.45,34.47,34.47,0,0,1-2.21-12.76,32.87,32.87,0,0,1,2.32-12.59,29.89,29.89,0,0,1,6.09-9.51,26.52,26.52,0,0,1,8.65-6,25.2,25.2,0,0,1,10.09-2.09,25.55,25.55,0,0,1,10.73,2.09,21.13,21.13,0,0,1,7.65,5.8,24.63,24.63,0,0,1,4.59,8.75,41.23,41.23,0,0,1,1.27,15.37c-.15,1.4-.31,2.44-.46,3.14H785.25q1.15,6.26,5.16,9.22a16,16,0,0,0,9.8,3,23.68,23.68,0,0,0,12.41-3.83l5.69,10.32a37.83,37.83,0,0,1-9.81,4.76A34.39,34.39,0,0,1,797.89,1028.84Zm-12.76-36.43h20.76a13,13,0,0,0-2.2-7.88q-2.21-3-7.42-3a10.56,10.56,0,0,0-7.14,2.67Q786.06,986.85,785.13,992.41Z"/>
    <path class="graphicFont" d="M842.09,991.25a9.8,9.8,0,0,1-7.37-3.07,10.54,10.54,0,0,1-3-7.6,10.69,10.69,0,0,1,3-7.71,10.35,10.35,0,0,1,14.73,0,10.69,10.69,0,0,1,3,7.71,10.54,10.54,0,0,1-3,7.6A9.8,9.8,0,0,1,842.09,991.25Zm0,37.59a9.81,9.81,0,0,1-7.37-3.08,10.52,10.52,0,0,1-3-7.59,10.7,10.7,0,0,1,3-7.72,10.37,10.37,0,0,1,14.73,0,10.7,10.7,0,0,1,3,7.72,10.52,10.52,0,0,1-3,7.59A9.81,9.81,0,0,1,842.09,1028.84Z"/>
    <path class="graphicFont" d="M887,1027.45v-9.75q7.07-6.62,12.93-12.35T910,994.56a58.56,58.56,0,0,0,6.61-9.4,17.27,17.27,0,0,0,2.38-8.29c0-3.63-.93-6.4-2.78-8.29a10.22,10.22,0,0,0-7.66-2.85,12,12,0,0,0-7.19,2.27,39.31,39.31,0,0,0-5.92,5.27l-9.27-9.16a42.18,42.18,0,0,1,11.13-8.76,29.07,29.07,0,0,1,13.57-3,28,28,0,0,1,9.92,1.69,22.59,22.59,0,0,1,7.71,4.75,20.7,20.7,0,0,1,5,7.37,25.42,25.42,0,0,1,1.74,9.63,24.91,24.91,0,0,1-2,9.45,51.62,51.62,0,0,1-5.28,9.63,102.18,102.18,0,0,1-7.54,9.63q-4.23,4.82-8.76,9.45,2.79-.35,6.21-.64t6.09-.29h14.85v14.39Z"/>
    <path class="graphicFont" d="M976.06,1027.45V951.81h18.68l12.18,33.64c.77,2.25,1.51,4.55,2.2,6.91s1.43,4.69,2.21,7h.46c.77-2.32,1.49-4.65,2.15-7s1.37-4.66,2.14-6.91L1028,951.81h18.56v75.64h-15.54V999.72c0-1.85.07-3.9.23-6.15s.35-4.5.58-6.78.46-4.53.7-6.73.46-4.23.69-6.09h-.46l-6.15,18-10.79,28.88h-9.39L995.67,992l-6-18h-.47c.23,1.86.47,3.89.7,6.09s.46,4.45.69,6.73.43,4.54.58,6.78.24,4.3.24,6.15v27.73Z"/>
    <path class="graphicFont" d="M1071.53,961.44a10.19,10.19,0,0,1-7.07-2.49,8.24,8.24,0,0,1-2.79-6.44,8.06,8.06,0,0,1,2.79-6.38,11.56,11.56,0,0,1,14.21,0,8.16,8.16,0,0,1,2.72,6.38,8.35,8.35,0,0,1-2.72,6.44A10.18,10.18,0,0,1,1071.53,961.44Zm-8.47,66V969.91h17.06v57.54Z"/>
    <path class="graphicFont" d="M1095.08,1027.45V969.91H1109l1.16,7.31h.46a46.17,46.17,0,0,1,8.12-6.09,19.9,19.9,0,0,1,10.33-2.61q9.39,0,13.63,6.15t4.23,17.05v35.73h-17V993.92q0-6.25-1.68-8.58c-1.13-1.55-2.92-2.32-5.4-2.32a10.27,10.27,0,0,0-5.57,1.45,33.23,33.23,0,0,0-5.1,4.12v38.86Z"/>
    <path class="graphicFont" d="M1178.71,1028.84q-9.39,0-13.63-6.15t-4.23-17.05V969.91h17.05v33.52q0,6.27,1.74,8.59t5.45,2.32a9.36,9.36,0,0,0,5.45-1.51,21.85,21.85,0,0,0,4.76-4.87V969.91h17v57.54h-13.92l-1.27-8h-.35a31.22,31.22,0,0,1-8,6.9A19.56,19.56,0,0,1,1178.71,1028.84Z"/>
    <path class="graphicFont" d="M1249.47,1028.84a22.78,22.78,0,0,1-9.1-1.63,15.86,15.86,0,0,1-6.15-4.52,18.23,18.23,0,0,1-3.48-7,34.92,34.92,0,0,1-1.1-9.1V983.25h-7.89V970.61l8.81-.7,2-15.31h14.15v15.31h13.8v13.34h-13.8v23.08c0,3.25.67,5.59,2,7a7.07,7.07,0,0,0,5.39,2.15,12.19,12.19,0,0,0,2.84-.35,18.33,18.33,0,0,0,2.61-.81l2.67,12.41c-1.55.46-3.36.93-5.45,1.39A33.58,33.58,0,0,1,1249.47,1028.84Z"/>
    <path class="graphicFont" d="M1295.41,1028.84a32.14,32.14,0,0,1-11.49-2,26.51,26.51,0,0,1-9.28-5.92,26.89,26.89,0,0,1-6.14-9.45,34.47,34.47,0,0,1-2.21-12.76,32.69,32.69,0,0,1,2.32-12.59,29.89,29.89,0,0,1,6.09-9.51,26.48,26.48,0,0,1,8.64-6,25.28,25.28,0,0,1,10.1-2.09,25.58,25.58,0,0,1,10.73,2.09,21.13,21.13,0,0,1,7.65,5.8,24.45,24.45,0,0,1,4.58,8.75,38,38,0,0,1,1.51,11,41.06,41.06,0,0,1-.23,4.4c-.16,1.4-.31,2.44-.46,3.14h-34.46q1.17,6.26,5.17,9.22a16,16,0,0,0,9.8,3,23.7,23.7,0,0,0,12.41-3.83l5.68,10.32a37.77,37.77,0,0,1-9.8,4.76A34.39,34.39,0,0,1,1295.41,1028.84Zm-12.76-36.43h20.76a13,13,0,0,0-2.2-7.88q-2.2-3-7.43-3a10.55,10.55,0,0,0-7.13,2.67Q1283.57,986.85,1282.65,992.41Z"/>
    <path class="graphicFont" d="M1346.68,1028.84a33.56,33.56,0,0,1-11.66-2.21,35.71,35.71,0,0,1-10.38-5.8l7.65-10.67a35.16,35.16,0,0,0,7.54,4.53,18.86,18.86,0,0,0,7.31,1.5c2.56,0,4.41-.42,5.57-1.27a4.2,4.2,0,0,0,1.74-3.6,3.61,3.61,0,0,0-1-2.49,9.84,9.84,0,0,0-2.66-2,26.37,26.37,0,0,0-3.77-1.68c-1.4-.51-2.83-1.07-4.29-1.69a52.56,52.56,0,0,1-5.34-2.43,22.72,22.72,0,0,1-4.87-3.42,16.9,16.9,0,0,1-3.6-4.76,13.68,13.68,0,0,1-1.39-6.32,17,17,0,0,1,1.57-7.31,15.57,15.57,0,0,1,4.46-5.68,21.91,21.91,0,0,1,7-3.66,28.87,28.87,0,0,1,9-1.33,27.82,27.82,0,0,1,11.6,2.26,46.62,46.62,0,0,1,8.7,5.05l-7.66,10.2a30.69,30.69,0,0,0-6.14-3.59,15.47,15.47,0,0,0-6-1.28q-6.49,0-6.49,4.53a3.32,3.32,0,0,0,.93,2.37,8.89,8.89,0,0,0,2.49,1.8,31.18,31.18,0,0,0,3.6,1.57l4.23,1.56c1.86.7,3.69,1.49,5.51,2.38a22.9,22.9,0,0,1,5,3.31,14.62,14.62,0,0,1,5,11.6,17.62,17.62,0,0,1-1.51,7.31,16,16,0,0,1-4.52,5.85,22.48,22.48,0,0,1-7.42,4A32.93,32.93,0,0,1,1346.68,1028.84Z"/>
  </g>
</svg>
